# xmcd
#
# Track frame offsets: 
#        150
#        20482
#        41572
#        59690
#        67107
#        93190
#        122290
#        167055
#        186827
#        210997
#        225015
#        247261
#        270005
#        291527
#        311525
#
# Disc length: 4366 seconds
#
# Revision: 1
# Processed by: cddbd v1.5.2PL0 Copyright (c) Steve Scherf et al.
# Submitted via: ExactAudioCopy v1.3
#
DISCID=cb110c0f
DTITLE=Ronnie Earl And The Broadcasters - Beyond The Blue Door
DYEAR=2019
DGENRE=Blues
TTITLE0=Brand New Me
TTITLE1=Baby How Long
TTITLE2=Drown In My Own Tears
TTITLE3=Alexis' Song
TTITLE4=The Sweetest Man
TTITLE5=It Takes a Lot To Laugh, It Takes a Train To Cry
TTITLE6=A Soul That's Been Abused
TTITLE7=Why Can't We Live Together
TTITLE8=Blues With A Feeling
TTITLE9=T-Bone Stomp
TTITLE10=Wolf Song
TTITLE11=Peace of Mind
TTITLE12=Drowning In a Sea Of Love
TTITLE13=Bringing Light (To a Dark Time)
TTITLE14=Blues for Charlottesville
EXTD=
EXTT0=
EXTT1=
EXTT2=
EXTT3=
EXTT4=
EXTT5=
EXTT6=
EXTT7=
EXTT8=
EXTT9=
EXTT10=
EXTT11=
EXTT12=
EXTT13=
EXTT14=
PLAYORDER=
